<?xml version="1.0" encoding="utf-8"?>
<!-- Generator: Adobe Illustrator 27.2.0, SVG Export Plug-In . SVG Version: 6.00 Build 0)  -->
<svg version="1.1" xmlns="http://www.w3.org/2000/svg" xmlns:xlink="http://www.w3.org/1999/xlink" x="0px" y="0px"
	 viewBox="0 0 239.39 20.97" style="enable-background:new 0 0 239.39 20.97;" xml:space="preserve">
<style type="text/css">
	.st0{fill:#FFF;}
	.st1{fill:#99CCFF;}
</style>
<g id="Layer_1">
	<g>
		<path class="st0" d="M22.6,0.89h5.18L22.9,20.03h-5.32l-3.4-11.61l-3.4,11.61H5.35L0.47,0.89h5.34l2.62,11.47l3.37-11.47h4.86
			l3.38,11.34L22.6,0.89z"/>
		<path class="st0" d="M39.35,0.48c5.26,0,9.83,3.78,9.83,9.99c0,6.21-4.56,9.99-9.83,9.99s-9.83-3.78-9.83-9.99
			C29.52,4.26,34.08,0.48,39.35,0.48z M39.35,15.57c2.24,0,4.62-1.59,4.62-5.13c0-3.48-2.38-5.07-4.62-5.07s-4.62,1.59-4.62,5.07
			C34.73,13.98,37.11,15.57,39.35,15.57z"/>
		<path class="st0" d="M61.7,0.48c5.26,0,9.83,3.78,9.83,9.99c0,6.21-4.56,9.99-9.83,9.99c-5.26,0-9.83-3.78-9.83-9.99
			C51.88,4.26,56.44,0.48,61.7,0.48z M61.7,15.57c2.24,0,4.62-1.59,4.62-5.13c0-3.48-2.38-5.07-4.62-5.07
			c-2.24,0-4.62,1.59-4.62,5.07C57.09,13.98,59.46,15.57,61.7,15.57z"/>
		<path class="st0" d="M86.92,20.03L80.28,8.66v11.36h-4.99V0.89h5.83l5.97,10.39V0.89h5.02v19.14H86.92z"/>
		<path class="st0" d="M100.51,20.03h-5.18l4.89-19.14h5.32l3.4,11.61l3.4-11.61h5.43l4.89,19.14h-5.34l-2.62-11.47l-3.37,11.47
			h-4.86l-3.38-11.34L100.51,20.03z"/>
		<path class="st0" d="M133.63,0.48c5.26,0,9.83,3.78,9.83,9.99c0,6.21-4.56,9.99-9.83,9.99c-5.26,0-9.83-3.78-9.83-9.99
			C123.8,4.26,128.37,0.48,133.63,0.48z M133.63,15.57c2.24,0,4.62-1.59,4.62-5.13c0-3.48-2.38-5.07-4.62-5.07
			c-2.24,0-4.62,1.59-4.62,5.07C129.01,13.98,131.39,15.57,133.63,15.57z"/>
		<path class="st0" d="M147.21,20.03V0.89h6.94c5.56,0,9.61,3.64,9.61,9.58c0,5.94-4.05,9.56-9.64,9.56H147.21z M154.1,15.09
			c2.4,0,4.48-1.4,4.48-4.64s-2.08-4.7-4.48-4.7h-1.83v9.34H154.1z"/>
		<path class="st0" d="M167.35,13.01V0.89h5.05v11.96c0,1.89,0.97,2.89,2.64,2.89c1.67,0,2.62-1,2.62-2.89V0.89h5.05v12.12
			c0,4.8-3.21,7.45-7.67,7.45C170.59,20.46,167.35,17.81,167.35,13.01z"/>
		<path class="st0" d="M187.33,20.03V0.89h5.02v14.36h7.29v4.78H187.33z"/>
		<path class="st0" d="M202.86,20.03V0.89h12.25v4.37h-7.23v3.02h6.59v4.21h-6.59v3.08h7.29v4.45H202.86z"/>
	</g>
</g>
<g id="Layer_2">
	<rect x="219.79" y="0.89" class="st1" width="19.14" height="19.14"/>
</g>
</svg>
